<svg xmlns="http://www.w3.org/2000/svg" width="100%" height="100%" filter="brightness(0.5) sepia(100%) hue-rotate(60deg) saturate(3) opacity(0.15)">
  <!-- Fallback topological pattern since generating a complex one in raw SVG is massive, using a generic wave-like CSS or SVG pattern -->
  <defs>
    <pattern id="topography" width="200" height="200" patternUnits="userSpaceOnUse">
      <path d="M 0 50 Q 50 100 100 50 T 200 50 M 0 100 Q 50 150 100 100 T 200 100 M 0 150 Q 50 200 100 150 T 200 150" fill="none" stroke="#9dff00" stroke-width="0.5" opacity="0.4"/>
      <path d="M 0 25 Q 50 75 100 25 T 200 25 M 0 75 Q 50 125 100 75 T 200 75 M 0 125 Q 50 175 100 125 T 200 125 M 0 175 Q 50 225 100 175 T 200 175" fill="none" stroke="#9dff00" stroke-width="0.3" opacity="0.3"/>
    </pattern>
  </defs>
  <rect width="100%" height="100%" fill="url(#topography)" />
</svg>
